<svg xmlns="http://www.w3.org/2000/svg" xmlns:xlink="http://www.w3.org/1999/xlink" version="1.1" x="0px" y="0px" viewBox="0 0 456.868 257.97875" style="enable-background:new 0 0 456.868 206.383;" xml:space="preserve"><g><polygon points="433.64,122.311 438.012,109.14 438.001,100.14 419.996,96.162 407.987,89.176 398.267,96.706 431.786,120.591  "/><path d="M315.042,64.314l5.956,7.71l0.357,0.112c3.935,1.232,6.465,4.855,6.505,8.771l4.661,6.032l31.157-12.964l25.157,16.465   l-1.16-14.001l-20.571-19.52l-30.245-9.638c5.627-3.346,11.376-6.499,17.25-9.429l-4.82-6.484   c-3.051,1.542-6.061,3.151-9.045,4.802l-17.656-23.745l8.124-6.04L325.964,0l-22.438,16.684l-1.007-1.354l-6.383,4.746   l22.063,29.675c-1.421,0.971-2.819,1.977-4.223,2.975l-5.915,2.967L315.042,64.314z M308.273,23.067l10.832-8.055l17.329,23.306   c-3.923,2.251-7.785,4.599-11.587,7.039L308.273,23.067z"/><path d="M248.233,42.604l28.952-4.23c-1.775-1.53-3.56-2.724-5.238-3.694c-3.822-2.224-6.98-3.133-8.633-4.574   c-0.472-0.422-0.889-1.043-0.888-1.796c0.046-1.202,0.818-2.03,2.004-3.038c3.582-2.962,5.115-6.564,5.105-9.257   c-0.028-2.222-0.942-3.664-2.489-4.145c-1.51-0.471-2.872-0.766-3.968-0.762c-1.076,0.01-1.849,0.256-2.488,0.831   c-0.641,0.581-1.213,1.606-1.563,3.358c-0.212,1.524-1.624,2.447-2.86,2.349c-1.607-0.022-3.335-0.778-5.104-1.464   c-1.739-0.704-3.494-1.342-4.57-1.321c-0.581,0.009-0.864,0.131-1.09,0.371c-0.229,0.245-0.48,0.797-0.512,1.889   c-0.014,0.385-0.018,0.756-0.018,1.115c0,2.302,0.232,4.107,0.236,5.705c0.033,1.799-0.379,3.554-1.965,4.822   c-1.553,1.258-3.958,2.127-7.997,3.096c-1.621,0.381-2.637,0.802-3.143,1.158c-0.506,0.383-0.498,0.507-0.519,0.73   c-0.053,0.424,0.589,1.526,1.414,2.804c0.792,1.297,1.703,2.889,1.712,4.846c0.004,0.664-0.117,1.347-0.36,2.041L248.233,42.604z"/><polygon points="325.537,89.846 328.694,88.532 326.741,86.003  "/><path d="M104.323,122.557l18.852,17.359l1.748-8.398l31.621,6.58l-4.909-15.833l62.227-19.289l5.745,18.525l14.326-34.796   l18.337,7.55l9.708-30.991c1.531-4.885,6.749-7.614,11.636-6.083l40.714,12.755l-2.424-3.137l-21.318-26.338l-41.955,6.129   l-79.105,4.717l-18.66,26.829l-73.473,43.975L104.323,122.557z"/><polygon points="37.954,100.736 18.82,104.43 5.874,128.663 36.424,128.625 46.933,121.601 69.814,121.981 97.249,105.561    89.412,90.804 79.913,92.637 79.575,88.628 79.485,87.573 72.817,85.581 68.781,86.74 62.2,52.036 54.341,53.526 61.509,91.324    60.925,92.229 57.921,96.882 45.809,99.221 45.063,95.291 41.887,78.541 34.027,80.032 37.209,96.808  "/><path d="M159.9,138.796l28.806,5.994l-0.219,1.054l15.842-23.102l12.568,0.152l-5.012-16.166l-56.497,17.514L159.9,138.796z    M204.081,115.09l0.703,2.536l-4.815,1.158l-0.837-2.159L204.081,115.09z M161.081,127.927l35.196-10.416l1.078,2.67l-35.774,10.97   L161.081,127.927z"/><polygon points="249.755,102.276 251.368,97.127 235.565,90.62 222.249,122.959 243.196,123.213 248.825,105.245 235.935,99.89    237.603,97.088  "/><path d="M143.542,158.671l31.08,7.392l9.463-13.8l1.071-5.145l-57.908-12.052l-1.502,7.218L143.542,158.671z M174.278,150.65   l-0.615,2.559l-4.771-1.32l0.313-2.293L174.278,150.65z M130.443,141.045l35.835,7.942l-0.35,2.857l-36.611-7.737L130.443,141.045z   "/><path d="M320.661,74.352l-47.743-14.957c-3.665-1.148-7.579,0.898-8.727,4.563l-18.572,59.286l2.423,0.029l5.026-16.045   l20.212,6.332l1.91-2.84l6.973-2.89l-26.667-8.353l10.909-34.825c0.767-2.447,3.372-3.809,5.818-3.042l47.745,14.957   c2.446,0.767,3.809,3.371,3.042,5.818l-3.065,9.785l1.779-0.737l1.017-0.423l2.484-7.932   C326.374,79.413,324.324,75.498,320.661,74.352z"/><rect x="271.331" y="81.517" transform="matrix(0.7064 -0.7079 0.7079 0.7064 22.9953 219.486)" width="9.428" height="1.019"/><rect x="275.059" y="85.236" transform="matrix(0.7062 -0.708 0.708 0.7062 21.4924 223.2827)" width="9.428" height="1.019"/><rect x="264.54" y="83.244" transform="matrix(0.7066 -0.7076 0.7076 0.7066 22.3086 221.3102)" width="27.005" height="1.017"/><polygon points="445.237,164.589 456.868,149.342 429.261,123.702 394.401,98.863 363.262,78.481 323.258,95.125 277.837,113.949    269.361,126.55 295.978,131.604 313.697,168.822 322.107,174.502 322.733,174.425 361.311,166.348 363.888,178.657    407.242,186.083  "/><polygon points="305.275,178.081 316.712,175.686 310.552,171.523 293.238,135.157 251.969,127.32 206.42,126.768 178.794,167.055    190.403,169.816 192.658,188.414 228.589,195.694 263.226,190.087 306.611,184.46  "/><polygon points="48.12,125.623 7.342,152.879 0,186.102 68.614,199.545 80.265,197.153 85.406,174.251 141.268,186.798    140.317,191.028 189.339,194.281 186.769,173.063 141.6,162.32 102.733,126.531  "/><path d="M133.793,206.383l3.89-17.316l-50.006-11.232l-3.887,17.316L133.793,206.383z M89.884,185.362l1.036-2.329l26.942,5.539   l-0.604,2.684L89.884,185.362z"/><path d="M358.987,169.901l-50.162,10.503l3.637,17.37l50.164-10.501L358.987,169.901z M340.23,179.199l-27.355,5.982l-0.022-2.549   l26.815-6.125L340.23,179.199z"/></g><text x="0" y="221.383" fill="#000000" font-size="5px" font-weight="bold" font-family="'Helvetica Neue', Helvetica, Arial-Unicode, Arial, Sans-serif">Created by Gan Khoon Lay</text><text x="0" y="226.383" fill="#000000" font-size="5px" font-weight="bold" font-family="'Helvetica Neue', Helvetica, Arial-Unicode, Arial, Sans-serif">from the Noun Project</text></svg>