<svg xmlns="http://www.w3.org/2000/svg" xmlns:xlink="http://www.w3.org/1999/xlink" version="1.1" x="0px" y="0px" viewBox="0 0 258 353.125" style="enable-background:new 0 0 258 282.5;" xml:space="preserve"><style type="text/css">
	.st0{fill:none;stroke:#000000;stroke-width:7;stroke-miterlimit:10;}
</style><g><rect x="0" y="227.2" width="236" height="16.6"/><rect x="0" y="203.5" width="236" height="16.6"/><path d="M32.6,282.5h170.9c17.7,0,32.1-14.1,32.6-31.7H0C0.5,268.4,14.9,282.5,32.6,282.5z"/><rect x="0" y="179.9" width="236" height="16.6"/><rect x="22" y="85.9" width="236" height="16.6"/><rect x="22" y="62.3" width="236" height="16.6"/><path d="M54.6,141.2h-22c-17.7,0-32.1,14.1-32.6,31.7h236c-0.5-17.5-14.9-31.7-32.6-31.7h22c17.7,0,32.1-14.1,32.6-31.7H22   C22.5,127.1,36.9,141.2,54.6,141.2z"/><path d="M225.4,0H54.6C36.9,0,22.5,14.1,22,31.7h236C257.5,14.1,243.1,0,225.4,0z"/><rect x="22" y="38.7" width="236" height="16.6"/></g><text x="0" y="297.5" fill="#000000" font-size="5px" font-weight="bold" font-family="'Helvetica Neue', Helvetica, Arial-Unicode, Arial, Sans-serif">Created by Matthias Smit</text><text x="0" y="302.5" fill="#000000" font-size="5px" font-weight="bold" font-family="'Helvetica Neue', Helvetica, Arial-Unicode, Arial, Sans-serif">from the Noun Project</text></svg>