<svg xmlns="http://www.w3.org/2000/svg" xmlns:xlink="http://www.w3.org/1999/xlink" viewBox="0 0 75 93.75" version="1.1" x="0px" y="0px"><g><path style="" d="M 59.535156 10.808594 L 54.179688 10.808594 L 54.179688 7.71875 C 54.179688 4.109375 51.242188 1.171875 47.632812 1.171875 L 27.964844 1.171875 C 24.351562 1.171875 21.417969 4.109375 21.417969 7.71875 L 21.417969 10.804688 L 16.0625 10.804688 C 13.257812 10.804688 10.972656 13.085938 10.972656 15.894531 L 10.972656 17.457031 L 13.839844 17.457031 L 13.839844 67.777344 C 13.839844 70.363281 15.941406 72.464844 18.527344 72.464844 L 57.070312 72.464844 C 59.652344 72.464844 61.757812 70.363281 61.757812 67.777344 L 61.757812 17.457031 L 64.621094 17.457031 L 64.621094 15.894531 C 64.621094 13.089844 62.339844 10.808594 59.535156 10.808594 Z M 26.105469 7.71875 C 26.105469 6.695312 26.9375 5.859375 27.964844 5.859375 L 47.632812 5.859375 C 48.65625 5.859375 49.492188 6.695312 49.492188 7.71875 L 49.492188 10.804688 L 26.105469 10.804688 Z M 58.632812 67.777344 C 58.632812 68.640625 57.929688 69.339844 57.070312 69.339844 L 18.527344 69.339844 C 17.664062 69.339844 16.964844 68.640625 16.964844 67.777344 L 16.964844 17.457031 L 58.632812 17.457031 Z M 58.632812 67.777344 " stroke="none" fill-rule="nonzero" fill="rgb(0.392157%,0.392157%,0.392157%)" fill-opacity="1"/><path style="" d="M 22.691406 25.976562 L 28.941406 25.976562 L 28.941406 61.394531 L 22.691406 61.394531 Z M 22.691406 25.976562 " stroke="none" fill-rule="nonzero" fill="rgb(0.392157%,0.392157%,0.392157%)" fill-opacity="1"/><path style="" d="M 34.671875 25.976562 L 40.921875 25.976562 L 40.921875 61.394531 L 34.671875 61.394531 Z M 34.671875 25.976562 " stroke="none" fill-rule="nonzero" fill="rgb(0.392157%,0.392157%,0.392157%)" fill-opacity="1"/><path style="" d="M 46.652344 25.976562 L 52.902344 25.976562 L 52.902344 61.394531 L 46.652344 61.394531 Z M 46.652344 25.976562 " stroke="none" fill-rule="nonzero" fill="rgb(0.392157%,0.392157%,0.392157%)" fill-opacity="1"/></g><text x="0" y="90" fill="#000000" font-size="5px" font-weight="bold" font-family="'Helvetica Neue', Helvetica, Arial-Unicode, Arial, Sans-serif">Created by Lloyd Humphreys</text><text x="0" y="95" fill="#000000" font-size="5px" font-weight="bold" font-family="'Helvetica Neue', Helvetica, Arial-Unicode, Arial, Sans-serif">from the Noun Project</text></svg>